<svg xmlns="http://www.w3.org/2000/svg" width="250" height="250"><g style="display:inline"><circle cx="50.839" cy="50.839" r="50.839" data-name="Ellipse 8" style="display:inline;fill:#dd0031" transform="scale(2.45874)"/></g><path d="M83 38a45 45 0 0 0-2.368.17 45 45 0 0 0-36.1 21.62 45 45 0 0 0-2.547 4.734 45 45 0 0 0-.001.002 45 45 0 0 0-3.815 16.106A45 45 0 0 0 38 83a45 45 0 0 0 .17 2.368 45 45 0 0 0 3.814 16.106 45 45 0 0 0 0 .002 45 45 0 0 0 2.549 4.735 45 45 0 0 0 36.099 21.62A45 45 0 0 0 83 128a45 45 0 0 0 2.368-.17 45 45 0 0 0 36.1-21.62 45 45 0 0 0 2.547-4.734 45 45 0 0 0 .001-.002 45 45 0 0 0 3.815-16.106A45 45 0 0 0 128 83a45 45 0 0 0-45-45Zm5.49 2.737a42.632 42.632 0 0 1 30.255 19.052H104.88a52.105 52.105 0 0 0-16.39-19.052Zm-11.02.026A52.105 52.105 0 0 0 61.12 59.79H47.257A42.632 42.632 0 0 1 77.47 40.763Zm3.162 1.044V59.79H64.15a49.363 49.363 0 0 1 16.482-17.982Zm4.736 0A49.363 49.363 0 0 1 101.85 59.79H85.368Zm-40.73 22.72H58.95a52.105 52.105 0 0 0-3.259 16.105H40.538a42.632 42.632 0 0 1 4.1-16.106zm17.255 0h18.739v16.105H58.426a49.363 49.363 0 0 1 3.467-16.106zm23.475 0h18.739a49.363 49.363 0 0 1 3.467 16.105H85.368Zm21.683 0h14.362a42.632 42.632 0 0 1 4.148 16.105H110.31a52.105 52.105 0 0 0-3.26-16.106ZM40.538 85.367h15.077a52.105 52.105 0 0 0-.008.519 52.105 52.105 0 0 0 3.378 15.587H44.638a42.632 42.632 0 0 1-4.1-16.106Zm17.812 0h22.282v16.106H61.97a49.363 49.363 0 0 1-3.627-15.74 49.363 49.363 0 0 1 .006-.366zm27.018 0h22.282a49.363 49.363 0 0 1 .005.367 49.363 49.363 0 0 1-3.627 15.739h-18.66Zm25.017 0h15.077a42.632 42.632 0 0 1-4.1 16.106h-14.348a52.105 52.105 0 0 0 3.38-15.587 52.105 52.105 0 0 0-.009-.519zm-63.128 20.843h13.8a52.105 52.105 0 0 0 16.325 19.02 42.632 42.632 0 0 1-30.125-19.02zm16.83 0h16.545v17.964a49.363 49.363 0 0 1-16.544-17.964Zm21.281 0h16.544a49.363 49.363 0 0 1-16.544 17.964zm19.574 0h13.8a42.632 42.632 0 0 1-30.124 19.02 52.105 52.105 0 0 0 16.324-19.02z" style="display:inline;opacity:1;fill:#fff;fill-opacity:1;stroke-width:.495303"/><g transform="matrix(.50077 0 0 .50077 91.6 99.638)"><rect width="173.725" height="49.3" x="50.005" y="94.375" ry="11.269" style="display:inline;fill:none;stroke:#fff;stroke-width:6;stroke-miterlimit:4;stroke-dasharray:none;stroke-opacity:1"/><path d="M174.664 111.982a7.043 7.043 0 0 0-7.043 7.043 7.043 7.043 0 0 0 7.043 7.043 7.043 7.043 0 0 0 7.043-7.043 7.043 7.043 0 0 0-7.043-7.043zm26 0a7.043 7.043 0 0 0-7.043 7.043 7.043 7.043 0 0 0 7.043 7.043 7.043 7.043 0 0 0 7.043-7.043 7.043 7.043 0 0 0-7.043-7.043z" style="display:inline;fill:none;stroke:#fff;stroke-width:6;stroke-miterlimit:4;stroke-dasharray:none;stroke-opacity:1"/></g><g transform="matrix(.50077 0 0 .50077 91.6 69.592)"><rect width="173.725" height="49.3" x="50.005" y="94.375" ry="11.269" style="display:inline;fill:none;stroke:#fff;stroke-width:6;stroke-miterlimit:4;stroke-dasharray:none;stroke-opacity:1"/><path d="M174.664 111.982a7.043 7.043 0 0 0-7.043 7.043 7.043 7.043 0 0 0 7.043 7.043 7.043 7.043 0 0 0 7.043-7.043 7.043 7.043 0 0 0-7.043-7.043zm26 0a7.043 7.043 0 0 0-7.043 7.043 7.043 7.043 0 0 0 7.043 7.043 7.043 7.043 0 0 0 7.043-7.043 7.043 7.043 0 0 0-7.043-7.043z" style="display:inline;fill:none;stroke:#fff;stroke-width:6;stroke-miterlimit:4;stroke-dasharray:none;stroke-opacity:1"/></g><g transform="matrix(.50077 0 0 .50077 91.6 129.684)"><rect width="173.725" height="49.3" x="50.005" y="94.375" ry="11.269" style="display:inline;fill:none;stroke:#fff;stroke-width:6;stroke-miterlimit:4;stroke-dasharray:none;stroke-opacity:1"/><path d="M174.664 111.982a7.043 7.043 0 0 0-7.043 7.043 7.043 7.043 0 0 0 7.043 7.043 7.043 7.043 0 0 0 7.043-7.043 7.043 7.043 0 0 0-7.043-7.043zm26 0a7.043 7.043 0 0 0-7.043 7.043 7.043 7.043 0 0 0 7.043 7.043 7.043 7.043 0 0 0 7.043-7.043 7.043 7.043 0 0 0-7.043-7.043z" style="display:inline;fill:none;stroke:#fff;stroke-width:6;stroke-miterlimit:4;stroke-dasharray:none;stroke-opacity:1"/></g></svg>