<?xml version="1.0" encoding="UTF-8" standalone="no"?>
<svg
   version="1.1"
   viewBox="0 0 250 250"
   height="250"
   width="250"
   alt="Rocket Ship"
   id="rocket"
   xmlns="http://www.w3.org/2000/svg"
   xmlns:svg="http://www.w3.org/2000/svg"
   xmlns:rdf="http://www.w3.org/1999/02/22-rdf-syntax-ns#"
   xmlns:cc="http://creativecommons.org/ns#"
   xmlns:dc="http://purl.org/dc/elements/1.1/">
  <metadata
     id="metadata12">
    <rdf:RDF>
      <cc:Work
         rdf:about="">
        <dc:format>image/svg+xml</dc:format>
        <dc:type
           rdf:resource="http://purl.org/dc/dcmitype/StillImage" />
      </cc:Work>
    </rdf:RDF>
  </metadata>
  <defs
     id="defs10" />
  <g
     id="g4546"
     transform="scale(2.4587423)"
     style="display:inline">
    <circle
       style="display:inline;fill:#dd0031"
       r="50.839001"
       cy="50.839001"
       cx="50.839001"
       data-name="Ellipse 8"
       id="Ellipse_8" />
  </g>
  <path
     id="path139"
     style="display:inline;opacity:1;fill:#ffffff;fill-opacity:1;stroke-width:0.495303"
     d="m 83,38 a 45,45 0 0 0 -2.368421,0.169305 45,45 0 0 0 -36.098993,21.620168 45,45 0 0 0 -2.547903,4.734992 45,45 0 0 0 -9e-4,0.0019 A 45,45 0 0 0 38.169305,80.631579 45,45 0 0 0 38,83 a 45,45 0 0 0 0.169305,2.368421 45,45 0 0 0 3.814453,16.105269 45,45 0 0 0 9.9e-4,0.002 45,45 0 0 0 2.54788,4.73494 A 45,45 0 0 0 80.631621,127.8306 45,45 0 0 0 83,128 a 45,45 0 0 0 2.368421,-0.16931 45,45 0 0 0 36.098989,-21.62017 45,45 0 0 0 2.5479,-4.73499 45,45 0 0 0 9e-4,-0.002 45,45 0 0 0 3.81445,-16.105261 A 45,45 0 0 0 128,83 45,45 0 0 0 83,38 Z m 5.489924,2.736636 A 42.631579,42.631579 0 0 1 118.74465,59.789473 H 104.88014 A 52.105268,52.105268 0 0 0 88.489924,40.736636 Z m -11.019633,0.02683 A 52.105268,52.105268 0 0 0 61.119861,59.789473 H 47.257196 A 42.631579,42.631579 0 0 1 77.470291,40.763466 Z m 3.161288,1.043585 V 59.789473 H 64.149774 A 49.362882,49.362882 0 0 1 80.631579,41.807051 Z m 4.736842,0 A 49.362882,49.362882 0 0 1 101.85022,59.789474 H 85.368421 Z M 44.638055,64.526316 H 58.949424 A 52.105268,52.105268 0 0 0 55.69007,80.631579 H 40.537726 a 42.631579,42.631579 0 0 1 4.100329,-16.105263 z m 17.255242,0 H 80.631579 V 80.631579 H 58.425782 a 49.362882,49.362882 0 0 1 3.467515,-16.105263 z m 23.475124,0 H 104.1067 a 49.362882,49.362882 0 0 1 3.46752,16.105263 H 85.368421 Z m 21.682149,0 h 14.36226 a 42.631579,42.631579 0 0 1 4.14843,16.105263 H 110.30993 A 52.105268,52.105268 0 0 0 107.05057,64.526316 Z M 40.537726,85.368421 h 15.077405 a 52.105268,52.105268 0 0 0 -0.0084,0.518092 52.105268,52.105268 0 0 0 3.378701,15.587177 H 44.638055 A 42.631579,42.631579 0 0 1 40.537726,85.368421 Z m 17.812192,0 H 80.631579 V 101.47369 H 61.971011 a 49.362882,49.362882 0 0 1 -3.626644,-15.738902 49.362882,49.362882 0 0 1 0.0056,-0.366367 z m 27.018503,0 h 22.281659 a 49.362882,49.362882 0 0 1 0.005,0.366367 49.362882,49.362882 0 0 1 -3.62664,15.738902 H 85.368421 Z m 25.016449,0 h 15.07741 a 42.631579,42.631579 0 0 1 -4.10034,16.105269 h -14.34745 a 52.105268,52.105268 0 0 0 3.3787,-15.587177 52.105268,52.105268 0 0 0 -0.008,-0.518092 z M 47.257196,106.21052 h 13.800678 a 52.105268,52.105268 0 0 0 16.324525,19.01953 42.631579,42.631579 0 0 1 -30.125203,-19.01953 z m 16.830592,0 h 16.543791 v 17.96485 A 49.362882,49.362882 0 0 1 64.087788,106.21052 Z m 21.280633,0 h 16.543789 a 49.362882,49.362882 0 0 1 -16.543789,17.96485 z m 19.573709,0 h 13.80068 a 42.631579,42.631579 0 0 1 -30.125209,19.01953 52.105268,52.105268 0 0 0 16.324529,-19.01953 z" />
  <g
     id="g2270"
     transform="matrix(0.50076568,0,0,0.50076568,97.5419,96.64633)">
    <g
       id="g2054"
       transform="translate(-11.866951,5.9750538)">
      <rect
         style="display:inline;fill:none;stroke:#ffffff;stroke-width:6;stroke-miterlimit:4;stroke-dasharray:none;stroke-opacity:1"
         id="rect1026"
         width="173.72478"
         height="49.300274"
         x="50.004562"
         y="94.374809"
         ry="11.268652" />
      <path
         id="path1966"
         style="display:inline;fill:none;stroke:#ffffff;stroke-width:6;stroke-miterlimit:4;stroke-dasharray:none;stroke-opacity:1"
         d="m 174.66406,111.98198 a 7.0428963,7.0428963 0 0 0 -7.04297,7.04297 7.0428963,7.0428963 0 0 0 7.04297,7.04296 7.0428963,7.0428963 0 0 0 7.04297,-7.04296 7.0428963,7.0428963 0 0 0 -7.04297,-7.04297 z m 26,0 a 7.0428963,7.0428963 0 0 0 -7.04297,7.04297 7.0428963,7.0428963 0 0 0 7.04297,7.04296 7.0428963,7.0428963 0 0 0 7.04297,-7.04296 7.0428963,7.0428963 0 0 0 -7.04297,-7.04297 z" />
    </g>
    <g
       id="g2253"
       transform="translate(-11.866951,-54.024946)">
      <rect
         style="display:inline;fill:none;stroke:#ffffff;stroke-width:6;stroke-miterlimit:4;stroke-dasharray:none;stroke-opacity:1"
         id="rect2249"
         width="173.72478"
         height="49.300274"
         x="50.004562"
         y="94.374809"
         ry="11.268652" />
      <path
         id="path2251"
         style="display:inline;fill:none;stroke:#ffffff;stroke-width:6;stroke-miterlimit:4;stroke-dasharray:none;stroke-opacity:1"
         d="m 174.66406,111.98198 a 7.0428963,7.0428963 0 0 0 -7.04297,7.04297 7.0428963,7.0428963 0 0 0 7.04297,7.04296 7.0428963,7.0428963 0 0 0 7.04297,-7.04296 7.0428963,7.0428963 0 0 0 -7.04297,-7.04297 z m 26,0 a 7.0428963,7.0428963 0 0 0 -7.04297,7.04297 7.0428963,7.0428963 0 0 0 7.04297,7.04296 7.0428963,7.0428963 0 0 0 7.04297,-7.04296 7.0428963,7.0428963 0 0 0 -7.04297,-7.04297 z" />
    </g>
    <g
       id="g2259"
       transform="translate(-11.866951,65.975054)">
      <rect
         style="display:inline;fill:none;stroke:#ffffff;stroke-width:6;stroke-miterlimit:4;stroke-dasharray:none;stroke-opacity:1"
         id="rect2255"
         width="173.72478"
         height="49.300274"
         x="50.004562"
         y="94.374809"
         ry="11.268652" />
      <path
         id="path2257"
         style="display:inline;fill:none;stroke:#ffffff;stroke-width:6;stroke-miterlimit:4;stroke-dasharray:none;stroke-opacity:1"
         d="m 174.66406,111.98198 a 7.0428963,7.0428963 0 0 0 -7.04297,7.04297 7.0428963,7.0428963 0 0 0 7.04297,7.04296 7.0428963,7.0428963 0 0 0 7.04297,-7.04296 7.0428963,7.0428963 0 0 0 -7.04297,-7.04297 z m 26,0 a 7.0428963,7.0428963 0 0 0 -7.04297,7.04297 7.0428963,7.0428963 0 0 0 7.04297,7.04296 7.0428963,7.0428963 0 0 0 7.04297,-7.04296 7.0428963,7.0428963 0 0 0 -7.04297,-7.04297 z" />
    </g>
  </g>
</svg>
